<?xml version="1.0" standalone="no"?>
<!DOCTYPE svg PUBLIC "-//W3C//DTD SVG 20010904//EN"
 "http://www.w3.org/TR/2001/REC-SVG-20010904/DTD/svg10.dtd">
<svg version="1.0" xmlns="http://www.w3.org/2000/svg"
 width="1082.000000pt" height="1082.000000pt" viewBox="0 0 1082.000000 1082.000000"
 preserveAspectRatio="xMidYMid meet">
<metadata>
Created by potrace 1.14, written by Peter Selinger 2001-2017
</metadata>
<g transform="translate(0.000000,1082.000000) scale(0.100000,-0.100000)"
fill="#000000" stroke="none">
<path d="M5666 8400 c-125 -85 -179 -124 -194 -138 -7 -6 -35 -27 -60 -44 -72
-49 -530 -395 -592 -447 -79 -66 -107 -98 -140 -166 -25 -50 -74 -228 -94
-340 -2 -16 -7 -41 -10 -55 -17 -77 -24 -113 -36 -175 -6 -27 -12 -61 -15 -75
-7 -34 -33 -187 -39 -231 -17 -114 -21 -181 -20 -334 0 -266 21 -310 186 -392
101 -50 150 -60 295 -57 156 3 210 11 269 39 43 21 55 33 72 73 21 49 65 190
78 252 9 43 7 34 38 155 14 55 27 114 30 132 4 17 13 58 21 90 8 32 17 74 20
93 3 19 10 51 15 70 5 19 11 46 14 60 10 54 44 202 48 204 1 1 62 43 133 93
212 148 296 203 309 203 6 0 25 -8 41 -18 17 -10 55 -32 85 -49 30 -16 109
-60 175 -98 66 -37 145 -82 175 -98 30 -17 67 -38 82 -49 14 -10 29 -18 32
-18 3 0 27 -13 53 -29 27 -16 239 -139 473 -274 234 -135 471 -272 528 -306
57 -34 108 -61 113 -61 5 0 9 -4 9 -10 0 -5 5 -10 11 -10 6 0 81 -42 167 -93
185 -110 385 -228 410 -242 90 -51 338 -201 340 -207 2 -5 9 -8 16 -8 19 0
103 -89 133 -140 38 -68 56 -137 56 -220 -1 -88 -4 -104 -33 -190 -69 -207
-262 -436 -381 -452 -13 -2 -28 -6 -34 -10 -9 -5 -11 -98 -6 -268 2 -67 3 -67
172 -21 135 36 548 145 589 156 8 2 107 29 220 60 113 31 239 65 280 76 102
28 293 90 302 98 4 3 9 20 12 36 3 17 8 39 10 50 23 115 39 473 39 885 0 357
-6 501 -28 620 -2 14 -7 45 -11 70 -3 24 -8 48 -10 52 -3 4 -7 22 -9 40 -15
117 -176 577 -285 813 -131 284 -192 400 -218 410 -8 3 -58 -6 -111 -21 -53
-14 -130 -35 -171 -45 -41 -11 -82 -21 -90 -23 -146 -38 -579 -148 -590 -151
-8 -1 -35 -8 -60 -15 -25 -7 -46 -12 -47 -12 -3 -1 -61 -15 -370 -94 l-261
-66 -134 78 c-73 43 -135 81 -138 84 -4 5 -351 214 -453 274 -18 10 -124 73
-237 141 -311 186 -451 268 -490 288 -19 10 -48 26 -65 37 -16 10 -46 27 -65
37 -19 9 -38 22 -42 27 -4 7 -87 11 -219 11 l-212 1 -81 -56z"/>
<path d="M4745 8312 c-31 -7 -65 -33 -65 -51 0 -12 -2 -13 -9 -3 -7 11 -11 11
-23 -2 -9 -8 -18 -13 -20 -10 -3 2 -11 -2 -18 -11 -7 -8 -19 -15 -26 -15 -8 0
-14 -7 -14 -15 0 -9 -6 -12 -15 -9 -8 4 -15 1 -15 -5 0 -6 -7 -11 -15 -11 -7
0 -18 -7 -23 -16 -5 -9 -12 -15 -15 -15 -18 2 -19 0 -6 -16 11 -15 11 -16 -1
-5 -18 15 -34 16 -24 0 4 -7 3 -8 -4 -4 -7 4 -21 -2 -33 -13 -12 -11 -25 -18
-29 -16 -5 3 -10 -2 -14 -10 -3 -8 -12 -15 -19 -15 -8 0 -22 -9 -32 -20 -10
-11 -20 -18 -23 -16 -2 3 -10 0 -18 -7 -32 -29 -44 -37 -53 -37 -5 0 -16 -6
-23 -13 -7 -7 -42 -30 -78 -52 -36 -21 -67 -42 -70 -45 -3 -4 -24 -17 -47 -30
-24 -13 -43 -27 -43 -32 0 -4 -6 -8 -13 -8 -8 0 -22 -9 -32 -20 -10 -11 -22
-17 -26 -14 -5 3 -9 0 -9 -6 0 -6 -4 -9 -9 -5 -6 3 -13 0 -18 -8 -4 -7 -19
-18 -33 -25 -62 -32 -80 -44 -80 -53 0 -5 -3 -8 -7 -7 -16 4 -53 -23 -47 -34
4 -7 2 -8 -5 -4 -7 4 -34 -7 -64 -26 -28 -18 -55 -32 -59 -31 -5 2 -8 -2 -8
-7 0 -6 -7 -10 -15 -10 -8 0 -15 -4 -15 -9 0 -5 -13 -14 -30 -20 -16 -5 -30
-15 -30 -20 0 -6 -3 -10 -7 -9 -16 4 -233 -109 -226 -117 5 -4 2 -5 -5 -1 -7
4 -19 3 -25 -3 -9 -7 -29 -6 -67 4 -29 8 -57 12 -62 9 -4 -3 -8 -1 -8 4 0 5
-6 9 -12 10 -22 2 -63 9 -78 15 -17 5 -95 27 -119 32 -9 2 -31 8 -50 14 -18 6
-36 10 -40 9 -3 -1 -13 1 -21 5 -45 17 -134 38 -147 33 -8 -3 -11 -1 -8 4 6 9
-10 14 -42 13 -7 -1 -13 2 -13 6 0 4 -6 8 -12 8 -7 0 -80 19 -163 43 -82 23
-157 43 -165 45 -8 2 -27 8 -42 14 -16 6 -28 8 -28 5 0 -4 -7 -1 -15 6 -8 7
-15 10 -15 6 0 -3 -12 -1 -27 5 -16 6 -39 13 -53 15 -14 3 -32 7 -40 11 -17 7
-27 10 -55 17 -11 2 -33 9 -48 15 -15 6 -31 10 -35 9 -7 -1 -18 2 -67 21 -11
4 -30 7 -43 6 -12 -1 -22 2 -22 7 0 5 -4 6 -10 3 -5 -3 -10 -1 -10 4 0 6 -9
11 -21 11 -11 0 -28 4 -38 9 -10 6 -28 12 -42 14 -13 2 -31 7 -40 11 -9 4 -27
8 -40 10 -13 1 -34 8 -47 15 -12 6 -27 9 -32 6 -5 -3 -11 -2 -14 3 -3 5 -30
15 -61 22 -31 7 -58 17 -61 22 -3 4 -12 8 -20 8 -14 0 -85 -134 -119 -226 -10
-27 -22 -53 -25 -59 -4 -5 -19 -46 -34 -90 -15 -44 -31 -89 -36 -100 -13 -29
-50 -146 -50 -159 0 -6 -6 -22 -13 -37 -8 -14 -12 -34 -11 -44 2 -11 -1 -22
-6 -25 -4 -3 -10 -18 -14 -35 -3 -16 -12 -57 -22 -90 -9 -33 -18 -68 -19 -78
-2 -9 -6 -20 -8 -25 -3 -4 -8 -23 -11 -42 -3 -19 -10 -50 -15 -68 -5 -18 -10
-35 -10 -37 -1 -3 -1 -6 -2 -7 0 -2 -2 -12 -4 -23 -2 -11 -9 -47 -15 -80 -7
-33 -14 -69 -16 -80 -1 -11 -3 -20 -4 -20 -3 0 -14 -70 -25 -152 -2 -11 -6
-30 -10 -42 -4 -14 -2 -21 7 -21 10 0 10 -2 -1 -9 -8 -5 -12 -18 -8 -30 3 -12
2 -21 -2 -21 -4 0 -8 -6 -8 -12 0 -7 -4 -47 -8 -88 -4 -41 -7 -117 -8 -167 -1
-51 -4 -93 -7 -93 -3 0 -5 -46 -5 -103 0 -58 -4 -105 -10 -109 -7 -5 -6 -8 1
-8 7 0 10 -12 7 -27 -2 -16 -3 -77 -3 -138 0 -60 0 -119 0 -130 -5 -264 2
-441 18 -457 5 -5 19 -10 31 -11 11 -1 21 -4 21 -7 0 -3 21 -11 47 -18 27 -8
56 -18 65 -23 10 -5 28 -9 41 -9 13 0 27 -3 31 -7 7 -7 18 -11 51 -15 11 -2
22 -6 25 -9 4 -4 127 -41 150 -44 3 -1 21 -6 41 -13 20 -7 45 -14 55 -17 10
-2 53 -14 94 -25 41 -12 80 -23 87 -24 7 -1 15 -5 19 -8 3 -4 12 -4 20 -1 8 3
14 1 14 -4 0 -5 6 -10 13 -10 6 0 44 -10 82 -21 39 -12 81 -23 95 -26 14 -2
25 -5 25 -6 0 -1 9 -4 20 -6 22 -5 32 -8 55 -16 14 -5 29 -9 150 -42 30 -9 94
-27 142 -41 48 -14 95 -28 105 -30 10 -2 32 -8 50 -14 17 -5 34 -7 37 -3 3 3
6 1 6 -4 0 -9 24 -14 72 -17 9 -1 14 -5 12 -9 -3 -4 3 -8 13 -9 10 0 28 -2 39
-5 17 -3 26 4 38 31 10 19 22 35 28 35 6 0 8 9 5 20 -3 11 -1 17 4 14 10 -6
22 5 57 50 12 16 47 48 77 71 30 23 51 46 47 49 -3 4 2 4 12 0 13 -5 17 -4 13
3 -5 7 0 9 12 6 10 -3 22 0 25 5 3 6 15 8 26 5 13 -3 20 0 20 8 0 10 2 11 8 2
4 -6 38 -13 77 -15 39 -2 72 -5 75 -8 6 -6 68 -30 92 -35 9 -2 30 -11 47 -19
17 -9 34 -17 38 -17 5 0 16 -8 26 -16 9 -9 17 -13 17 -9 0 4 10 -2 22 -14 12
-11 27 -20 34 -20 7 0 14 -4 16 -8 3 -9 117 -90 149 -107 11 -5 19 -13 19 -17
0 -5 7 -8 15 -8 8 0 15 5 15 11 0 5 5 7 10 4 6 -3 10 -1 10 4 0 6 29 40 64 76
35 36 61 65 58 65 -3 0 8 10 24 23 17 12 41 33 55 46 22 21 80 53 104 57 6 1
12 3 15 4 14 7 142 5 146 -2 3 -5 13 -3 22 4 12 10 14 10 8 1 -5 -9 0 -13 16
-13 13 0 44 -7 71 -15 26 -8 47 -12 47 -9 0 2 13 -2 30 -11 16 -8 31 -15 32
-14 2 0 17 -5 33 -12 17 -7 33 -12 38 -11 4 1 7 -3 7 -10 0 -6 3 -9 6 -5 7 7
19 -2 75 -54 22 -20 39 -41 39 -47 0 -6 3 -12 8 -14 4 -1 21 -30 38 -63 28
-55 33 -60 60 -57 16 2 34 8 39 15 6 7 15 12 20 12 15 0 89 38 97 49 4 6 8 7
8 2 0 -5 7 -2 17 5 9 8 19 13 22 13 3 -1 17 3 31 8 33 13 75 20 135 22 28 1
56 5 64 10 10 6 12 5 7 -2 -5 -8 2 -12 21 -12 15 0 35 -4 43 -10 9 -6 17 -5
22 3 6 9 8 9 8 0 0 -7 6 -13 14 -13 8 0 35 -9 60 -20 26 -11 49 -19 53 -19 3
0 9 -3 12 -8 3 -4 16 -14 29 -20 12 -7 32 -19 44 -25 13 -7 29 -21 36 -30 7
-10 18 -18 23 -18 11 0 109 -99 109 -109 0 -4 8 -16 18 -27 17 -18 52 -87 73
-142 8 -21 11 -23 27 -11 15 13 16 12 3 -4 -34 -44 29 -85 139 -90 25 -1 51
-8 58 -15 8 -7 17 -10 22 -7 4 3 24 -2 43 -10 19 -8 37 -11 41 -8 3 4 6 1 6
-6 0 -7 15 -18 33 -26 17 -8 52 -28 76 -44 25 -16 49 -27 54 -24 6 3 7 2 4 -4
-3 -5 6 -18 20 -29 15 -10 38 -31 51 -46 14 -15 29 -25 35 -21 6 3 7 1 3 -5
-3 -6 2 -19 12 -29 35 -35 102 -152 102 -178 0 -10 5 -13 12 -9 6 4 8 3 5 -3
-11 -17 4 -74 17 -66 8 5 8 3 1 -8 -13 -17 -13 -78 -1 -98 6 -9 5 -12 -1 -8
-13 8 -27 -58 -17 -75 4 -6 3 -8 -3 -5 -6 4 -21 -18 -34 -48 -13 -30 -27 -55
-31 -55 -5 0 -8 -6 -8 -13 0 -7 -6 -19 -12 -26 -7 -6 -13 -15 -14 -19 0 -4 -4
-15 -9 -25 -10 -23 13 -68 38 -75 9 -2 17 -7 17 -11 0 -8 68 -39 102 -47 56
-13 110 -4 167 28 33 19 140 125 141 140 0 4 6 13 13 20 6 7 19 27 27 43 8 17
21 36 28 43 7 8 10 17 7 22 -3 5 0 10 5 12 6 2 12 10 13 18 2 8 6 20 10 27 17
27 34 103 32 140 -4 65 -37 120 -106 178 -32 27 -72 52 -83 53 -5 0 -12 4 -15
9 -3 5 -26 20 -51 34 -25 13 -51 30 -59 37 -7 7 -21 10 -29 7 -9 -3 -13 -3 -9
1 7 8 -33 40 -45 36 -5 -1 -8 4 -8 11 0 7 -9 19 -19 26 -25 18 -17 38 22 50
38 13 55 10 120 -18 27 -12 55 -21 63 -21 8 0 14 -5 14 -11 0 -5 5 -7 10 -4 6
3 10 3 10 -2 0 -4 10 -13 23 -18 32 -16 111 -59 117 -65 3 -3 28 -17 55 -30
28 -14 52 -28 53 -32 2 -5 10 -8 18 -8 8 0 14 -5 14 -12 0 -6 3 -9 6 -5 4 3
13 -1 21 -9 9 -9 24 -12 37 -9 16 5 18 4 7 -4 -12 -8 -9 -12 15 -23 16 -7 31
-15 34 -19 3 -3 30 -19 60 -35 30 -16 58 -33 62 -39 4 -5 8 -7 8 -3 0 4 22 -4
49 -17 26 -14 59 -27 72 -29 13 -3 25 -5 27 -7 8 -6 49 -4 60 4 6 5 12 7 12 3
0 -4 13 0 29 8 42 22 122 106 114 119 -3 7 -3 9 2 5 16 -14 81 94 69 114 -4 7
-3 8 4 4 12 -7 35 27 25 38 -3 3 -1 6 6 6 8 0 11 8 8 20 -3 11 -1 18 3 15 4
-3 13 9 19 25 5 17 7 30 3 30 -4 0 -1 4 5 8 7 4 14 21 16 38 2 16 6 35 10 41
4 7 3 14 -3 18 -6 4 -7 12 -1 22 14 26 -6 65 -52 100 -23 17 -44 31 -47 30 -3
-1 -17 8 -30 21 -39 36 -133 93 -147 88 -8 -3 -10 1 -6 11 4 11 2 14 -5 9 -7
-4 -12 -2 -12 3 0 6 -7 11 -15 11 -8 0 -15 5 -15 11 0 6 -7 8 -16 5 -8 -3 -12
-2 -9 4 3 5 -6 12 -20 16 -14 3 -25 10 -25 14 0 4 -18 15 -40 24 -22 9 -40 20
-40 26 0 5 -9 10 -20 10 -11 0 -20 3 -20 8 0 12 -61 42 -73 35 -7 -3 -9 -3 -5
2 7 7 -175 125 -193 125 -5 0 -9 5 -9 10 0 6 -7 10 -15 10 -8 0 -15 5 -15 10
0 6 -5 10 -10 10 -6 0 -22 11 -36 25 -14 14 -21 25 -15 25 5 0 8 8 7 18 -9 58
142 73 215 21 14 -10 28 -16 31 -13 3 2 11 -2 18 -11 7 -8 19 -15 26 -15 8 0
14 -5 14 -11 0 -5 5 -7 10 -4 6 3 10 2 10 -3 0 -9 50 -37 63 -34 4 1 7 -3 7
-8 0 -6 7 -10 15 -10 8 0 15 -4 15 -9 0 -5 14 -14 30 -21 17 -7 30 -16 30 -19
0 -4 16 -13 35 -21 19 -8 35 -17 35 -22 0 -4 4 -8 9 -8 9 0 97 -52 140 -82 13
-9 28 -15 33 -12 4 3 8 1 8 -5 0 -10 52 -42 65 -41 3 0 13 -6 22 -15 8 -9 22
-14 30 -11 8 3 12 2 9 -3 -3 -4 16 -19 42 -32 26 -12 55 -30 65 -38 9 -8 17
-11 17 -8 0 3 28 -8 62 -25 34 -16 67 -31 74 -32 8 -1 17 -5 20 -9 4 -4 13 -2
21 4 9 8 13 8 13 1 0 -24 76 23 131 80 74 78 89 96 89 107 0 5 6 16 13 23 23
24 85 152 89 183 2 17 7 33 11 36 12 8 18 119 7 119 -4 0 -6 9 -3 20 3 11 0
20 -6 20 -6 0 -10 4 -8 9 3 14 -55 88 -80 102 -13 7 -23 16 -23 21 0 4 -5 8
-10 8 -6 0 -20 9 -32 20 -12 11 -34 26 -50 32 -15 7 -28 16 -28 20 0 5 -7 8
-15 8 -8 0 -15 4 -15 8 0 5 -16 14 -35 22 -19 8 -35 17 -35 22 0 4 -4 8 -10 8
-5 0 -33 14 -62 31 -29 18 -59 32 -65 32 -7 0 -13 4 -13 9 0 8 -50 31 -59 28
-2 -1 -7 3 -10 8 -11 17 -183 102 -194 95 -5 -3 -7 -2 -4 4 4 6 -15 21 -41 34
-26 13 -48 27 -50 32 -2 4 -12 7 -23 7 -10 0 -19 5 -19 10 0 6 -6 10 -14 10
-8 0 -22 7 -30 16 -9 8 -16 13 -16 9 0 -3 -10 3 -22 15 -12 11 -26 20 -31 20
-4 0 -15 6 -23 14 -18 18 -38 70 -24 61 9 -6 14 7 11 27 0 4 6 5 14 2 8 -4 15
-1 15 5 0 6 14 11 31 11 21 0 28 4 23 13 -5 8 -2 7 9 -2 10 -8 20 -11 23 -8 7
6 95 -18 139 -38 16 -7 33 -11 37 -9 4 3 8 0 8 -5 0 -6 9 -11 20 -11 11 0 20
-4 20 -10 0 -5 4 -10 9 -10 10 0 189 -98 201 -110 17 -18 62 -40 71 -35 5 4 8
2 7 -4 -4 -13 102 -82 115 -74 6 3 7 1 3 -5 -4 -8 3 -16 18 -22 14 -5 26 -14
26 -19 0 -5 15 -15 34 -21 19 -6 36 -14 38 -18 3 -7 153 -87 153 -82 0 1 12
-3 27 -9 66 -25 179 -12 215 25 8 8 19 14 25 14 5 0 7 7 4 16 -3 9 -2 12 5 9
5 -4 21 5 34 19 13 14 22 26 20 26 -2 0 7 12 21 27 14 15 22 33 19 40 -2 8 0
11 5 8 5 -3 15 7 22 22 7 15 15 30 18 33 14 14 30 52 25 60 -4 6 -1 10 6 10 7
0 9 10 7 25 -3 13 -1 23 5 22 12 -2 18 23 22 88 2 36 -2 57 -16 76 -10 15 -19
30 -19 33 0 23 -180 156 -209 156 -5 0 -14 7 -21 15 -7 8 -16 12 -21 9 -5 -3
-9 0 -9 5 0 6 -18 18 -40 27 -22 9 -40 20 -40 26 0 5 -4 7 -9 3 -5 -3 -12 -1
-15 4 -10 15 -84 50 -92 43 -4 -4 -4 -2 0 5 4 8 -2 15 -19 19 -14 3 -25 10
-25 14 0 5 -10 12 -22 16 -13 4 -25 10 -28 15 -3 4 -12 9 -20 11 -8 2 -23 11
-35 21 -11 10 -27 16 -37 14 -11 -3 -15 0 -11 9 3 8 -1 14 -10 14 -8 0 -31 11
-51 25 -20 13 -36 22 -36 19 0 -2 -10 4 -22 16 -12 11 -27 20 -34 20 -6 0 -17
7 -24 15 -6 8 -15 14 -18 13 -4 -1 -25 9 -47 23 -22 14 -60 36 -85 50 -25 13
-46 27 -48 32 -2 4 -8 7 -14 7 -5 0 -21 9 -35 20 -14 11 -34 20 -43 20 -10 0
-20 7 -24 15 -3 8 -12 15 -21 15 -8 0 -15 5 -15 12 0 6 -3 9 -6 5 -4 -3 -26 7
-50 23 -23 17 -47 30 -53 30 -6 0 -11 5 -11 11 0 5 -4 7 -10 4 -5 -3 -10 -1
-10 6 0 7 -8 9 -21 6 -12 -3 -18 -3 -15 0 9 9 -14 33 -31 33 -7 0 -23 9 -35
20 -12 10 -24 17 -28 15 -4 -3 -20 7 -36 20 -16 14 -35 23 -42 20 -7 -3 -11
-1 -8 4 3 5 -1 12 -10 15 -22 9 -26 8 -18 -6 5 -7 3 -8 -5 -4 -7 5 -10 11 -6
14 5 5 -78 62 -91 62 -3 0 -19 9 -35 21 -16 11 -29 17 -29 14 0 -4 -7 1 -16 9
-8 9 -22 16 -30 16 -8 0 -14 5 -14 11 0 6 -7 8 -16 5 -10 -4 -13 -2 -8 6 5 8
2 9 -10 5 -9 -4 -15 -3 -12 2 3 4 -7 14 -22 22 -15 8 -30 18 -33 22 -4 5 -18
10 -32 10 -14 1 -23 5 -21 9 2 3 -22 21 -53 38 -32 18 -80 45 -108 60 -27 15
-71 40 -97 54 -26 15 -53 24 -59 20 -7 -4 -9 -3 -6 3 4 5 -6 16 -21 24 -15 7
-39 22 -54 32 -16 10 -28 15 -28 12 0 -4 -12 3 -26 14 -15 11 -30 18 -35 15
-5 -3 -9 -1 -9 4 0 10 -80 49 -92 44 -5 -1 -8 3 -8 9 0 5 -4 8 -9 5 -5 -4 -11
-2 -13 3 -1 4 -36 25 -77 46 -68 36 -75 37 -86 21 -7 -10 -17 -18 -22 -19 -4
-1 -7 -6 -5 -10 1 -5 -2 -6 -7 -2 -6 3 -19 -3 -31 -15 -11 -11 -20 -17 -20
-14 0 3 -6 -1 -14 -8 -8 -7 -28 -24 -45 -37 -17 -13 -28 -27 -25 -32 3 -5 -2
-9 -10 -9 -9 0 -16 -7 -16 -15 0 -8 -4 -15 -8 -15 -10 0 -38 -70 -34 -83 1 -5
-1 -14 -6 -21 -6 -6 -13 -40 -16 -75 -4 -36 -9 -67 -11 -71 -2 -3 -6 -26 -10
-51 -3 -24 -14 -87 -24 -139 -13 -67 -16 -99 -9 -108 8 -9 6 -11 -8 -6 -10 4
-16 4 -13 0 4 -4 0 -35 -8 -69 -8 -34 -16 -73 -18 -87 -2 -14 -8 -40 -14 -57
-5 -18 -7 -33 -3 -33 3 0 1 -5 -5 -11 -6 -6 -9 -18 -6 -25 3 -8 0 -14 -6 -14
-6 0 -10 -3 -9 -7 4 -15 -15 -98 -29 -133 -6 -14 -18 -42 -26 -62 -9 -21 -13
-38 -10 -38 3 0 -4 -9 -17 -20 -13 -11 -20 -26 -17 -34 4 -9 1 -13 -6 -10 -7
2 -27 -10 -44 -26 -18 -17 -35 -30 -38 -30 -21 1 -25 -1 -19 -12 4 -6 3 -8 -3
-5 -11 7 -92 -12 -110 -25 -7 -5 -14 -5 -18 2 -3 6 -11 7 -18 3 -19 -12 -141
-6 -272 14 -22 3 -52 6 -67 7 -14 1 -24 5 -20 10 3 5 -2 7 -10 3 -9 -3 -19 -3
-22 1 -4 3 -13 7 -21 8 -32 5 -171 48 -182 57 -7 5 -19 7 -27 4 -8 -3 -17 1
-20 9 -3 8 -14 14 -25 14 -11 0 -23 5 -26 10 -4 6 -11 8 -16 5 -5 -4 -9 -1 -9
6 0 6 -8 9 -20 6 -11 -3 -18 -2 -15 2 3 7 -44 35 -52 32 -5 -2 -34 24 -88 76
-58 56 -96 100 -76 88 8 -5 5 6 -8 23 -12 18 -20 32 -17 32 3 0 1 12 -5 28
-17 44 -30 222 -16 222 5 0 5 4 2 10 -3 5 -2 26 4 45 6 22 6 37 0 41 -6 4 -6
11 1 19 6 7 13 33 15 56 2 24 4 44 5 44 1 0 4 16 7 35 2 19 9 42 14 52 7 13 6
18 -3 18 -9 0 -10 2 -1 8 6 4 13 21 16 37 13 68 18 91 24 105 3 8 8 24 10 35
2 11 6 34 9 50 3 17 7 39 9 50 2 11 4 21 5 23 2 1 4 7 5 12 1 6 3 11 5 13 3 4
11 41 13 64 1 13 6 23 11 23 5 0 7 3 3 6 -3 3 -1 17 4 31 7 18 6 30 -3 41 -9
11 -9 13 -1 9 15 -9 21 1 29 49 3 22 10 47 16 57 5 10 7 25 4 33 -3 8 -2 14 3
14 11 0 33 99 24 112 -3 7 -1 8 5 4 7 -4 12 -4 13 1 2 27 10 61 18 78 5 11 15
38 21 60 22 74 59 155 72 155 5 0 6 6 2 13 -4 6 -4 9 1 5 7 -6 44 18 102 67 7
5 19 15 26 22 13 10 176 122 334 229 29 20 51 40 47 45 -3 5 2 6 10 3 11 -4
16 0 16 10 0 15 -12 21 -33 17 -5 -1 -6 3 -2 9 6 9 -39 34 -76 42 -8 2 -16 5
-19 8 -18 20 -179 59 -215 52z m180 -81 c3 -5 2 -12 -3 -15 -5 -3 -9 1 -9 9 0
17 3 19 12 6z m-320 -80 c3 -5 2 -12 -3 -15 -5 -3 -9 1 -9 9 0 17 3 19 12 6z
m165 -7 c0 -8 -19 -13 -24 -6 -3 5 1 9 9 9 8 0 15 -2 15 -3z m-85 -163 c3 -5
2 -12 -3 -15 -5 -3 -9 1 -9 9 0 17 3 19 12 6z m-158 -76 c0 -8 -4 -12 -9 -9
-5 3 -6 10 -3 15 9 13 12 11 12 -6z m-482 -74 c3 -5 2 -12 -3 -15 -5 -3 -9 1
-9 9 0 17 3 19 12 6z m319 -9 c3 -5 -1 -9 -9 -9 -8 0 -12 4 -9 9 3 4 7 8 9 8
2 0 6 -4 9 -8z m-397 -77 c0 -8 -4 -12 -9 -9 -5 3 -6 10 -3 15 9 13 12 11 12
-6z m240 0 c0 -8 -4 -12 -9 -9 -5 3 -6 10 -3 15 9 13 12 11 12 -6z m-82 -4 c3
-5 2 -12 -3 -15 -5 -3 -9 1 -9 9 0 17 3 19 12 6z m255 3 c0 -8 -19 -13 -24 -6
-3 5 1 9 9 9 8 0 15 -2 15 -3z m-3046 -82 c3 -5 -1 -9 -9 -9 -8 0 -12 4 -9 9
3 4 7 8 9 8 2 0 6 -4 9 -8z m-169 -71 c3 -5 2 -12 -3 -15 -5 -3 -9 1 -9 9 0
17 3 19 12 6z m242 -6 c0 -8 -4 -12 -9 -9 -5 3 -6 10 -3 15 9 13 12 11 12 -6z
m240 0 c0 -8 -4 -12 -9 -9 -5 3 -6 10 -3 15 9 13 12 11 12 -6z m240 0 c0 -8
-4 -12 -9 -9 -5 3 -6 10 -3 15 9 13 12 11 12 -6z m2080 0 c0 -8 -4 -12 -9 -9
-5 3 -6 10 -3 15 9 13 12 11 12 -6z m240 0 c0 -8 -4 -12 -9 -9 -5 3 -6 10 -3
15 9 13 12 11 12 -6z m-2162 -4 c3 -5 2 -12 -3 -15 -5 -3 -9 1 -9 9 0 17 3 19
12 6z m169 -79 c3 -5 -1 -9 -9 -9 -8 0 -12 4 -9 9 3 4 7 8 9 8 2 0 6 -4 9 -8z
m1513 -7 c0 -8 -4 -12 -9 -9 -5 3 -6 10 -3 15 9 13 12 11 12 -6z m-880 -70 c0
-8 -4 -12 -9 -9 -5 3 -6 10 -3 15 9 13 12 11 12 -6z m-1597 -1 c0 -8 -19 -13
-24 -6 -3 5 1 9 9 9 8 0 15 -2 15 -3z m90 0 c0 -8 -19 -13 -24 -6 -3 5 1 9 9
9 8 0 15 -2 15 -3z m225 -3 c3 -5 2 -12 -3 -15 -5 -3 -9 1 -9 9 0 17 3 19 12
6z m2335 3 c0 -8 -19 -13 -24 -6 -3 5 1 9 9 9 8 0 15 -2 15 -3z m225 -3 c3 -5
2 -12 -3 -15 -5 -3 -9 1 -9 9 0 17 3 19 12 6z m-2478 -76 c0 -8 -4 -12 -9 -9
-5 3 -6 10 -3 15 9 13 12 11 12 -6z m240 0 c0 -8 -4 -12 -9 -9 -5 3 -6 10 -3
15 9 13 12 11 12 -6z m1438 6 c3 -5 2 -12 -3 -15 -5 -3 -9 1 -9 9 0 17 3 19
12 6z m882 -6 c0 -8 -4 -12 -9 -9 -5 3 -6 10 -3 15 9 13 12 11 12 -6z m-1682
-4 c3 -5 2 -12 -3 -15 -5 -3 -9 1 -9 9 0 17 3 19 12 6z m82 -6 c0 -8 -4 -12
-9 -9 -5 3 -6 10 -3 15 9 13 12 11 12 -6z m397 7 c3 -5 -1 -9 -9 -9 -8 0 -12
4 -9 9 3 4 7 8 9 8 2 0 6 -4 9 -8z m650 0 c3 -5 -1 -9 -9 -9 -8 0 -12 4 -9 9
3 4 7 8 9 8 2 0 6 -4 9 -8z m-1287 -77 c0 -8 -4 -12 -9 -9 -5 3 -6 10 -3 15 9
13 12 11 12 -6z m398 6 c3 -5 2 -12 -3 -15 -5 -3 -9 1 -9 9 0 17 3 19 12 6z
m-711 -9 c3 -5 -1 -9 -9 -9 -8 0 -12 4 -9 9 3 4 7 8 9 8 2 0 6 -4 9 -8z m886
2 c0 -8 -19 -13 -24 -6 -3 5 1 9 9 9 8 0 15 -2 15 -3z m240 0 c0 -8 -19 -13
-24 -6 -3 5 1 9 9 9 8 0 15 -2 15 -3z m225 -3 c3 -5 2 -12 -3 -15 -5 -3 -9 1
-9 9 0 17 3 19 12 6z m639 1 c3 -5 -1 -9 -9 -9 -8 0 -12 4 -9 9 3 4 7 8 9 8 2
0 6 -4 9 -8z m-2957 -77 c0 -8 -4 -12 -9 -9 -5 3 -6 10 -3 15 9 13 12 11 12
-6z m78 -4 c3 -5 2 -12 -3 -15 -5 -3 -9 1 -9 9 0 17 3 19 12 6z m645 3 c0 -8
-19 -13 -24 -6 -3 5 1 9 9 9 8 0 15 -2 15 -3z m1434 -2 c3 -5 -1 -9 -9 -9 -8
0 -12 4 -9 9 3 4 7 8 9 8 2 0 6 -4 9 -8z m966 2 c0 -8 -19 -13 -24 -6 -3 5 1
9 9 9 8 0 15 -2 15 -3z m-2445 -43 c3 -5 2 -12 -3 -15 -5 -3 -9 1 -9 9 0 17 3
19 12 6z m-120 -30 c3 -5 2 -12 -3 -15 -5 -3 -9 1 -9 9 0 17 3 19 12 6z m480
0 c3 -5 2 -12 -3 -15 -5 -3 -9 1 -9 9 0 17 3 19 12 6z m1842 -6 c0 -8 -4 -12
-9 -9 -5 3 -6 10 -3 15 9 13 12 11 12 -6z m-2400 -10 c0 -8 -4 -12 -9 -9 -5 3
-6 10 -3 15 9 13 12 11 12 -6z m247 7 c3 -5 -1 -9 -9 -9 -8 0 -12 4 -9 9 3 4
7 8 9 8 2 0 6 -4 9 -8z m233 -7 c0 -8 -4 -12 -9 -9 -5 3 -6 10 -3 15 9 13 12
11 12 -6z m253 9 c0 -8 -19 -13 -24 -6 -3 5 1 9 9 9 8 0 15 -2 15 -3z m225 -3
c3 -5 2 -12 -3 -15 -5 -3 -9 1 -9 9 0 17 3 19 12 6z m325 3 c0 -8 -19 -13 -24
-6 -3 5 1 9 9 9 8 0 15 -2 15 -3z m-1750 -80 c0 -8 -19 -13 -24 -6 -3 5 1 9 9
9 8 0 15 -2 15 -3z m1840 0 c0 -8 -19 -13 -24 -6 -3 5 1 9 9 9 8 0 15 -2 15
-3z m240 0 c0 -8 -19 -13 -24 -6 -3 5 1 9 9 9 8 0 15 -2 15 -3z m240 0 c0 -8
-19 -13 -24 -6 -3 5 1 9 9 9 8 0 15 -2 15 -3z m2550 0 c0 -8 -19 -13 -24 -6
-3 5 1 9 9 9 8 0 15 -2 15 -3z m157 -9 c0 -8 -4 -12 -9 -9 -5 3 -6 10 -3 15 9
13 12 11 12 -6z m-124 -30 c-3 -9 -8 -14 -10 -11 -3 3 -2 9 2 15 9 16 15 13 8
-4z m-4996 -40 c0 -8 -4 -12 -9 -9 -5 3 -6 10 -3 15 9 13 12 11 12 -6z m240 0
c0 -8 -4 -12 -9 -9 -5 3 -6 10 -3 15 9 13 12 11 12 -6z m681 -10 c-3 -3 -9 2
-12 12 -6 14 -5 15 5 6 7 -7 10 -15 7 -18z m1275 10 c-3 -9 -8 -14 -10 -11 -3
3 -2 9 2 15 9 16 15 13 8 -4z m682 6 c3 -5 2 -12 -3 -15 -5 -3 -9 1 -9 9 0 17
3 19 12 6z m1922 -6 c0 -8 -4 -12 -9 -9 -5 3 -6 10 -3 15 9 13 12 11 12 -6z
m240 0 c0 -8 -4 -12 -9 -9 -5 3 -6 10 -3 15 9 13 12 11 12 -6z m240 0 c0 -8
-4 -12 -9 -9 -5 3 -6 10 -3 15 9 13 12 11 12 -6z m-4793 -3 c3 -5 -1 -9 -9 -9
-8 0 -12 4 -9 9 3 4 7 8 9 8 2 0 6 -4 9 -8z m240 0 c3 -5 -1 -9 -9 -9 -8 0
-12 4 -9 9 3 4 7 8 9 8 2 0 6 -4 9 -8z m1046 2 c0 -8 -19 -13 -24 -6 -3 5 1 9
9 9 8 0 15 -2 15 -3z m240 0 c0 -8 -19 -13 -24 -6 -3 5 1 9 9 9 8 0 15 -2 15
-3z m390 0 c0 -8 -19 -13 -24 -6 -3 5 1 9 9 9 8 0 15 -2 15 -3z m240 0 c0 -8
-19 -13 -24 -6 -3 5 1 9 9 9 8 0 15 -2 15 -3z m-1286 -82 c3 -5 -1 -9 -9 -9
-8 0 -12 4 -9 9 3 4 7 8 9 8 2 0 6 -4 9 -8z m161 -1 c3 -5 2 -12 -3 -15 -5 -3
-9 1 -9 9 0 17 3 19 12 6z m3839 1 c3 -5 -1 -9 -9 -9 -8 0 -12 4 -9 9 3 4 7 8
9 8 2 0 6 -4 9 -8z m90 0 c3 -5 -1 -9 -9 -9 -8 0 -12 4 -9 9 3 4 7 8 9 8 2 0
6 -4 9 -8z m-4364 -42 c0 -5 -2 -10 -4 -10 -3 0 -8 5 -11 10 -3 6 -1 10 4 10
6 0 11 -4 11 -10z m960 4 c0 -8 -19 -13 -24 -6 -3 5 1 9 9 9 8 0 15 -2 15 -3z
m3165 -4 c-3 -5 -12 -10 -18 -10 -7 0 -6 4 3 10 19 12 23 12 15 0z m-4410 -29
c3 -5 2 -12 -3 -15 -5 -3 -9 1 -9 9 0 17 3 19 12 6z m1282 -6 c0 -8 -4 -12 -9
-9 -5 3 -6 10 -3 15 9 13 12 11 12 -6z m238 6 c3 -5 2 -12 -3 -15 -5 -3 -9 1
-9 9 0 17 3 19 12 6z m-2001 -9 c3 -5 -1 -9 -9 -9 -8 0 -12 4 -9 9 3 4 7 8 9
8 2 0 6 -4 9 -8z m403 -7 c0 -8 -4 -12 -9 -9 -5 3 -6 10 -3 15 9 13 12 11 12
-6z m400 0 c0 -8 -4 -12 -9 -9 -5 3 -6 10 -3 15 9 13 12 11 12 -6z m253 9 c0
-8 -19 -13 -24 -6 -3 5 1 9 9 9 8 0 15 -2 15 -3z m625 -3 c3 -5 2 -12 -3 -15
-5 -3 -9 1 -9 9 0 17 3 19 12 6z m809 1 c3 -5 -1 -9 -9 -9 -8 0 -12 4 -9 9 3
4 7 8 9 8 2 0 6 -4 9 -8z m-2807 -77 c0 -8 -4 -12 -9 -9 -5 3 -6 10 -3 15 9
13 12 11 12 -6z m240 0 c0 -8 -4 -12 -9 -9 -5 3 -6 10 -3 15 9 13 12 11 12 -6z
m681 -10 c-3 -3 -9 2 -12 12 -6 14 -5 15 5 6 7 -7 10 -15 7 -18z m1717 16 c3
-5 2 -12 -3 -15 -5 -3 -9 1 -9 9 0 17 3 19 12 6z m240 0 c3 -5 2 -12 -3 -15
-5 -3 -9 1 -9 9 0 17 3 19 12 6z m1922 -6 c0 -8 -4 -12 -9 -9 -5 3 -6 10 -3
15 9 13 12 11 12 -6z m240 0 c0 -8 -4 -12 -9 -9 -5 3 -6 10 -3 15 9 13 12 11
12 -6z m238 -4 c3 -5 2 -12 -3 -15 -5 -3 -9 1 -9 9 0 17 3 19 12 6z m319 1 c3
-5 -1 -9 -9 -9 -8 0 -12 4 -9 9 3 4 7 8 9 8 2 0 6 -4 9 -8z m-5199 -50 c-3 -3
-11 0 -18 7 -9 10 -8 11 6 5 10 -3 15 -9 12 -12z m1050 8 c3 -6 -1 -7 -9 -4
-18 7 -21 14 -7 14 6 0 13 -4 16 -10z m235 6 c0 -2 -7 -7 -16 -10 -8 -3 -12
-2 -9 4 6 10 25 14 25 6z m1045 -6 c-3 -5 -12 -10 -18 -10 -7 0 -6 4 3 10 19
12 23 12 15 0z m2792 -35 c0 -8 -4 -12 -9 -9 -5 3 -6 10 -3 15 9 13 12 11 12
-6z m-5587 -1 c0 -8 -19 -13 -24 -6 -3 5 1 9 9 9 8 0 15 -2 15 -3z m1427 -9
c0 -8 -4 -12 -9 -9 -5 3 -6 10 -3 15 9 13 12 11 12 -6z m400 0 c0 -8 -4 -12
-9 -9 -5 3 -6 10 -3 15 9 13 12 11 12 -6z m878 6 c3 -5 2 -12 -3 -15 -5 -3 -9
1 -9 9 0 17 3 19 12 6z m530 -1 c3 -6 -1 -7 -9 -4 -18 7 -21 14 -7 14 6 0 13
-4 16 -10z m1712 -5 c0 -8 -4 -12 -9 -9 -5 3 -6 10 -3 15 9 13 12 11 12 -6z
m237 7 c3 -5 -1 -9 -9 -9 -8 0 -12 4 -9 9 3 4 7 8 9 8 2 0 6 -4 9 -8z m240 0
c3 -5 -1 -9 -9 -9 -8 0 -12 4 -9 9 3 4 7 8 9 8 2 0 6 -4 9 -8z m-4639 -71 c3
-5 2 -12 -3 -15 -5 -3 -9 1 -9 9 0 17 3 19 12 6z m400 0 c3 -5 2 -12 -3 -15
-5 -3 -9 1 -9 9 0 17 3 19 12 6z m882 -6 c0 -8 -4 -12 -9 -9 -5 3 -6 10 -3 15
9 13 12 11 12 -6z m400 0 c0 -8 -4 -12 -9 -9 -5 3 -6 10 -3 15 9 13 12 11 12
-6z m-2307 -1 c0 -8 -19 -13 -24 -6 -3 5 1 9 9 9 8 0 15 -2 15 -3z m707 -9 c0
-8 -4 -12 -9 -9 -5 3 -6 10 -3 15 9 13 12 11 12 -6z m240 0 c0 -8 -4 -12 -9
-9 -5 3 -6 10 -3 15 9 13 12 11 12 -6z m487 7 c3 -5 -1 -9 -9 -9 -8 0 -12 4
-9 9 3 4 7 8 9 8 2 0 6 -4 9 -8z m76 2 c0 -8 -19 -13 -24 -6 -3 5 1 9 9 9 8 0
15 -2 15 -3z m475 -3 c3 -5 2 -12 -3 -15 -5 -3 -9 1 -9 9 0 17 3 19 12 6z
m240 0 c3 -5 2 -12 -3 -15 -5 -3 -9 1 -9 9 0 17 3 19 12 6z m495 3 c0 -8 -19
-13 -24 -6 -3 5 1 9 9 9 8 0 15 -2 15 -3z m230 0 c0 -8 -19 -13 -24 -6 -3 5 1
9 9 9 8 0 15 -2 15 -3z m2010 0 c0 -8 -19 -13 -24 -6 -3 5 1 9 9 9 8 0 15 -2
15 -3z m864 -2 c3 -5 -1 -9 -9 -9 -8 0 -12 4 -9 9 3 4 7 8 9 8 2 0 6 -4 9 -8z
m-5797 -47 c0 -8 -4 -12 -9 -9 -5 3 -6 10 -3 15 9 13 12 11 12 -6z m637 7 c3
-5 -1 -9 -9 -9 -8 0 -12 4 -9 9 3 4 7 8 9 8 2 0 6 -4 9 -8z m1503 -7 c0 -8 -4
-12 -9 -9 -5 3 -6 10 -3 15 9 13 12 11 12 -6z m107 7 c3 -5 -1 -9 -9 -9 -8 0
-12 4 -9 9 3 4 7 8 9 8 2 0 6 -4 9 -8z m631 -1 c3 -5 2 -12 -3 -15 -5 -3 -9 1
-9 9 0 17 3 19 12 6z m3085 -1 c0 -5 -2 -10 -4 -10 -3 0 -8 5 -11 10 -3 6 -1
10 4 10 6 0 11 -4 11 -10z m-5843 -35 c0 -8 -4 -12 -9 -9 -5 3 -6 10 -3 15 9
13 12 11 12 -6z m2638 6 c3 -5 2 -12 -3 -15 -5 -3 -9 1 -9 9 0 17 3 19 12 6z
m2882 -6 c0 -8 -4 -12 -9 -9 -5 3 -6 10 -3 15 9 13 12 11 12 -6z m-5683 -3 c3
-5 -1 -9 -9 -9 -8 0 -12 4 -9 9 3 4 7 8 9 8 2 0 6 -4 9 -8z m2970 0 c3 -5 -1
-9 -9 -9 -8 0 -12 4 -9 9 3 4 7 8 9 8 2 0 6 -4 9 -8z m2406 2 c0 -8 -19 -13
-24 -6 -3 5 1 9 9 9 8 0 15 -2 15 -3z m225 -3 c3 -5 2 -12 -3 -15 -5 -3 -9 1
-9 9 0 17 3 19 12 6z m-279 -47 c1 -9 0 -13 -4 -10 -3 4 -7 14 -8 22 -1 9 0
13 4 10 3 -4 7 -14 8 -22z m759 -23 c3 -5 2 -12 -3 -15 -5 -3 -9 1 -9 9 0 17
3 19 12 6z m-5431 -9 c3 -5 -1 -9 -9 -9 -8 0 -12 4 -9 9 3 4 7 8 9 8 2 0 6 -4
9 -8z m396 2 c0 -8 -19 -13 -24 -6 -3 5 1 9 9 9 8 0 15 -2 15 -3z m240 0 c0
-8 -19 -13 -24 -6 -3 5 1 9 9 9 8 0 15 -2 15 -3z m650 0 c0 -8 -19 -13 -24 -6
-3 5 1 9 9 9 8 0 15 -2 15 -3z m384 -2 c3 -5 -1 -9 -9 -9 -8 0 -12 4 -9 9 3 4
7 8 9 8 2 0 6 -4 9 -8z m240 0 c3 -5 -1 -9 -9 -9 -8 0 -12 4 -9 9 3 4 7 8 9 8
2 0 6 -4 9 -8z m2246 2 c0 -8 -19 -13 -24 -6 -3 5 1 9 9 9 8 0 15 -2 15 -3z
m234 -2 c3 -5 -1 -9 -9 -9 -8 0 -12 4 -9 9 3 4 7 8 9 8 2 0 6 -4 9 -8z m240 0
c3 -5 -1 -9 -9 -9 -8 0 -12 4 -9 9 3 4 7 8 9 8 2 0 6 -4 9 -8z m576 2 c0 -8
-19 -13 -24 -6 -3 5 1 9 9 9 8 0 15 -2 15 -3z m-3090 -20 c0 -8 -19 -13 -24
-6 -3 5 1 9 9 9 8 0 15 -2 15 -3z m-1550 -60 c0 -8 -19 -13 -24 -6 -3 5 1 9 9
9 8 0 15 -2 15 -3z m310 0 c0 -8 -19 -13 -24 -6 -3 5 1 9 9 9 8 0 15 -2 15 -3z
m240 0 c0 -8 -19 -13 -24 -6 -3 5 1 9 9 9 8 0 15 -2 15 -3z m970 0 c0 -8 -19
-13 -24 -6 -3 5 1 9 9 9 8 0 15 -2 15 -3z m2590 -4 c0 -5 -4 -10 -10 -10 -5 0
-10 5 -10 10 0 6 5 10 10 10 6 0 10 -4 10 -10z m835 1 c3 -5 2 -12 -3 -15 -5
-3 -9 1 -9 9 0 17 3 19 12 6z m-5998 -76 c0 -8 -4 -12 -9 -9 -5 3 -6 10 -3 15
9 13 12 11 12 -6z m80 0 c0 -8 -4 -12 -9 -9 -5 3 -6 10 -3 15 9 13 12 11 12
-6z m478 6 c3 -5 2 -12 -3 -15 -5 -3 -9 1 -9 9 0 17 3 19 12 6z m240 0 c3 -5
2 -12 -3 -15 -5 -3 -9 1 -9 9 0 17 3 19 12 6z m1042 -6 c0 -8 -4 -12 -9 -9 -5
3 -6 10 -3 15 9 13 12 11 12 -6z m240 0 c0 -8 -4 -12 -9 -9 -5 3 -6 10 -3 15
9 13 12 11 12 -6z m558 6 c3 -5 2 -12 -3 -15 -5 -3 -9 1 -9 9 0 17 3 19 12 6z
m2320 0 c3 -5 2 -12 -3 -15 -5 -3 -9 1 -9 9 0 17 3 19 12 6z m402 -6 c0 -8 -4
-12 -9 -9 -5 3 -6 10 -3 15 9 13 12 11 12 -6z m-5762 -4 c3 -5 2 -12 -3 -15
-5 -3 -9 1 -9 9 0 17 3 19 12 6z m719 1 c3 -5 -1 -9 -9 -9 -8 0 -12 4 -9 9 3
4 7 8 9 8 2 0 6 -4 9 -8z m163 -7 c0 -8 -4 -12 -9 -9 -5 3 -6 10 -3 15 9 13
12 11 12 -6z m400 0 c0 -8 -4 -12 -9 -9 -5 3 -6 10 -3 15 9 13 12 11 12 -6z
m878 6 c3 -5 2 -12 -3 -15 -5 -3 -9 1 -9 9 0 17 3 19 12 6z m400 0 c3 -5 2
-12 -3 -15 -5 -3 -9 1 -9 9 0 17 3 19 12 6z m725 3 c0 -8 -19 -13 -24 -6 -3 5
1 9 9 9 8 0 15 -2 15 -3z m1610 0 c0 -8 -19 -13 -24 -6 -3 5 1 9 9 9 8 0 15
-2 15 -3z m67 -9 c0 -8 -4 -12 -9 -9 -5 3 -6 10 -3 15 9 13 12 11 12 -6z m167
7 c3 -5 -1 -9 -9 -9 -8 0 -12 4 -9 9 3 4 7 8 9 8 2 0 6 -4 9 -8z m313 -7 c0
-8 -4 -12 -9 -9 -5 3 -6 10 -3 15 9 13 12 11 12 -6z m238 6 c3 -5 2 -12 -3
-15 -5 -3 -9 1 -9 9 0 17 3 19 12 6z m319 1 c3 -5 -1 -9 -9 -9 -8 0 -12 4 -9
9 3 4 7 8 9 8 2 0 6 -4 9 -8z m161 -1 c3 -5 2 -12 -3 -15 -5 -3 -9 1 -9 9 0
17 3 19 12 6z m79 1 c3 -5 -1 -9 -9 -9 -8 0 -12 4 -9 9 3 4 7 8 9 8 2 0 6 -4
9 -8z m-5000 -40 c3 -5 -1 -9 -9 -9 -8 0 -12 4 -9 9 3 4 7 8 9 8 2 0 6 -4 9
-8z m970 0 c3 -5 -1 -9 -9 -9 -8 0 -12 4 -9 9 3 4 7 8 9 8 2 0 6 -4 9 -8z
m3190 0 c3 -5 -1 -9 -9 -9 -8 0 -12 4 -9 9 3 4 7 8 9 8 2 0 6 -4 9 -8z m330 0
c3 -5 -1 -9 -9 -9 -8 0 -12 4 -9 9 3 4 7 8 9 8 2 0 6 -4 9 -8z m-5604 -43 c0
-5 -4 -9 -8 -9 -5 0 -9 7 -9 15 0 8 4 12 9 9 4 -3 8 -9 8 -15z m6437 6 c0 -8
-4 -12 -9 -9 -5 3 -6 10 -3 15 9 13 12 11 12 -6z m-1437 -1 c0 -8 -19 -13 -24
-6 -3 5 1 9 9 9 8 0 15 -2 15 -3z m890 0 c0 -8 -19 -13 -24 -6 -3 5 1 9 9 9 8
0 15 -2 15 -3z m-5375 -83 c3 -5 2 -12 -3 -15 -5 -3 -9 1 -9 9 0 17 3 19 12 6z
m325 3 c0 -8 -19 -13 -24 -6 -3 5 1 9 9 9 8 0 15 -2 15 -3z m490 0 c0 -8 -19
-13 -24 -6 -3 5 1 9 9 9 8 0 15 -2 15 -3z m240 0 c0 -8 -19 -13 -24 -6 -3 5 1
9 9 9 8 0 15 -2 15 -3z m70 0 c0 -8 -19 -13 -24 -6 -3 5 1 9 9 9 8 0 15 -2 15
-3z m240 0 c0 -8 -19 -13 -24 -6 -3 5 1 9 9 9 8 0 15 -2 15 -3z m234 -2 c3 -5
-1 -9 -9 -9 -8 0 -12 4 -9 9 3 4 7 8 9 8 2 0 6 -4 9 -8z m963 -7 c0 -8 -4 -12
-9 -9 -5 3 -6 10 -3 15 9 13 12 11 12 -6z m173 9 c0 -8 -19 -13 -24 -6 -3 5 1
9 9 9 8 0 15 -2 15 -3z m1381 -17 c-10 -9 -11 -8 -5 6 3 10 9 15 12 12 3 -3 0
-11 -7 -18z m613 15 c3 -5 -1 -9 -9 -9 -8 0 -12 4 -9 9 3 4 7 8 9 8 2 0 6 -4
9 -8z m196 -2 c0 -5 -4 -10 -10 -10 -5 0 -10 5 -10 10 0 6 5 10 10 10 6 0 10
-4 10 -10z m194 2 c3 -5 -1 -9 -9 -9 -8 0 -12 4 -9 9 3 4 7 8 9 8 2 0 6 -4 9
-8z m656 2 c0 -8 -19 -13 -24 -6 -3 5 1 9 9 9 8 0 15 -2 15 -3z m-6335 -73 c3
-5 2 -12 -3 -15 -5 -3 -9 1 -9 9 0 17 3 19 12 6z m402 -6 c0 -8 -4 -12 -9 -9
-5 3 -6 10 -3 15 9 13 12 11 12 -6z m240 0 c0 -8 -4 -12 -9 -9 -5 3 -6 10 -3
15 9 13 12 11 12 -6z m1998 6 c3 -5 2 -12 -3 -15 -5 -3 -9 1 -9 9 0 17 3 19
12 6z m240 0 c3 -5 2 -12 -3 -15 -5 -3 -9 1 -9 9 0 17 3 19 12 6z m80 0 c3 -5
2 -12 -3 -15 -5 -3 -9 1 -9 9 0 17 3 19 12 6z m-2711 -9 c3 -5 -1 -9 -9 -9 -8
0 -12 4 -9 9 3 4 7 8 9 8 2 0 6 -4 9 -8z m640 0 c3 -5 -1 -9 -9 -9 -8 0 -12 4
-9 9 3 4 7 8 9 8 2 0 6 -4 9 -8z m550 0 c3 -5 -1 -9 -9 -9 -8 0 -12 4 -9 9 3
4 7 8 9 8 2 0 6 -4 9 -8z m736 2 c0 -8 -19 -13 -24 -6 -3 5 1 9 9 9 8 0 15 -2
15 -3z m230 0 c0 -8 -19 -13 -24 -6 -3 5 1 9 9 9 8 0 15 -2 15 -3z m2410 0 c0
-8 -19 -13 -24 -6 -3 5 1 9 9 9 8 0 15 -2 15 -3z m225 -3 c3 -5 2 -12 -3 -15
-5 -3 -9 1 -9 9 0 17 3 19 12 6z m882 -6 c0 -8 -4 -12 -9 -9 -5 3 -6 10 -3 15
9 13 12 11 12 -6z m483 9 c0 -8 -19 -13 -24 -6 -3 5 1 9 9 9 8 0 15 -2 15 -3z
m557 -9 c0 -8 -4 -12 -9 -9 -5 3 -6 10 -3 15 9 13 12 11 12 -6z m-3562 -34 c3
-5 2 -12 -3 -15 -5 -3 -9 1 -9 9 0 17 3 19 12 6z m-2120 -40 c3 -5 2 -12 -3
-15 -5 -3 -9 1 -9 9 0 17 3 19 12 6z m2169 1 c3 -5 -1 -9 -9 -9 -8 0 -12 4 -9
9 3 4 7 8 9 8 2 0 6 -4 9 -8z m1430 0 c3 -5 -1 -9 -9 -9 -8 0 -12 4 -9 9 3 4
7 8 9 8 2 0 6 -4 9 -8z m1210 0 c3 -5 -1 -9 -9 -9 -8 0 -12 4 -9 9 3 4 7 8 9
8 2 0 6 -4 9 -8z m716 2 c0 -8 -19 -13 -24 -6 -3 5 1 9 9 9 8 0 15 -2 15 -3z
m-6920 -78 c0 -3 -4 -8 -10 -11 -5 -3 -10 -1 -10 4 0 6 5 11 10 11 6 0 10 -2
10 -4z m200 -2 c0 -8 -19 -13 -24 -6 -3 5 1 9 9 9 8 0 15 -2 15 -3z m1530 0
c0 -8 -19 -13 -24 -6 -3 5 1 9 9 9 8 0 15 -2 15 -3z m70 0 c0 -8 -19 -13 -24
-6 -3 5 1 9 9 9 8 0 15 -2 15 -3z m314 -2 c3 -5 -1 -9 -9 -9 -8 0 -12 4 -9 9
3 4 7 8 9 8 2 0 6 -4 9 -8z m570 0 c3 -5 -1 -9 -9 -9 -8 0 -12 4 -9 9 3 4 7 8
9 8 2 0 6 -4 9 -8z m2916 -2 c0 -5 -4 -10 -10 -10 -5 0 -10 5 -10 10 0 6 5 10
10 10 6 0 10 -4 10 -10z m1840 0 c0 -5 -5 -10 -11 -10 -5 0 -7 5 -4 10 3 6 8
10 11 10 2 0 4 -4 4 -10z m-7325 -69 c3 -5 2 -12 -3 -15 -5 -3 -9 1 -9 9 0 17
3 19 12 6z m240 0 c3 -5 2 -12 -3 -15 -5 -3 -9 1 -9 9 0 17 3 19 12 6z m162
-6 c0 -8 -4 -12 -9 -9 -5 3 -6 10 -3 15 9 13 12 11 12 -6z m240 0 c0 -8 -4
-12 -9 -9 -5 3 -6 10 -3 15 9 13 12 11 12 -6z m238 6 c3 -5 2 -12 -3 -15 -5
-3 -9 1 -9 9 0 17 3 19 12 6z m562 -6 c0 -8 -4 -12 -9 -9 -5 3 -6 10 -3 15 9
13 12 11 12 -6z m720 0 c0 -8 -4 -12 -9 -9 -5 3 -6 10 -3 15 9 13 12 11 12 -6z
m238 6 c3 -5 2 -12 -3 -15 -5 -3 -9 1 -9 9 0 17 3 19 12 6z m240 0 c3 -5 2
-12 -3 -15 -5 -3 -9 1 -9 9 0 17 3 19 12 6z m240 0 c3 -5 2 -12 -3 -15 -5 -3
-9 1 -9 9 0 17 3 19 12 6z m480 0 c3 -5 2 -12 -3 -15 -5 -3 -9 1 -9 9 0 17 3
19 12 6z m400 0 c3 -5 2 -12 -3 -15 -5 -3 -9 1 -9 9 0 17 3 19 12 6z m815 -7
c0 -8 -19 -13 -24 -6 -3 5 1 9 9 9 8 0 15 -2 15 -3z m240 0 c0 -8 -19 -13 -24
-6 -3 5 1 9 9 9 8 0 15 -2 15 -3z m240 0 c0 -8 -19 -13 -24 -6 -3 5 1 9 9 9 8
0 15 -2 15 -3z m240 0 c0 -8 -19 -13 -24 -6 -3 5 1 9 9 9 8 0 15 -2 15 -3z
m390 0 c0 -8 -19 -13 -24 -6 -3 5 1 9 9 9 8 0 15 -2 15 -3z m240 0 c0 -8 -19
-13 -24 -6 -3 5 1 9 9 9 8 0 15 -2 15 -3z m240 0 c0 -8 -19 -13 -24 -6 -3 5 1
9 9 9 8 0 15 -2 15 -3z m240 0 c0 -8 -19 -13 -24 -6 -3 5 1 9 9 9 8 0 15 -2
15 -3z m84 -2 c3 -5 -1 -9 -9 -9 -8 0 -12 4 -9 9 3 4 7 8 9 8 2 0 6 -4 9 -8z
m240 0 c3 -5 -1 -9 -9 -9 -8 0 -12 4 -9 9 3 4 7 8 9 8 2 0 6 -4 9 -8z m240 0
c3 -5 -1 -9 -9 -9 -8 0 -12 4 -9 9 3 4 7 8 9 8 2 0 6 -4 9 -8z m240 0 c3 -5
-1 -9 -9 -9 -8 0 -12 4 -9 9 3 4 7 8 9 8 2 0 6 -4 9 -8z m-3519 -42 c3 -6 -1
-7 -9 -4 -18 7 -21 14 -7 14 6 0 13 -4 16 -10z m230 -8 c-3 -3 -11 0 -18 7 -9
10 -8 11 6 5 10 -3 15 -9 12 -12z m2535 12 c0 -8 -19 -13 -24 -6 -3 5 1 9 9 9
8 0 15 -2 15 -3z m-6295 -43 c3 -5 2 -12 -3 -15 -5 -3 -9 1 -9 9 0 17 3 19 12
6z m642 -6 c0 -8 -4 -12 -9 -9 -5 3 -6 10 -3 15 9 13 12 11 12 -6z m958 6 c3
-5 2 -12 -3 -15 -5 -3 -9 1 -9 9 0 17 3 19 12 6z m240 0 c3 -5 2 -12 -3 -15
-5 -3 -9 1 -9 9 0 17 3 19 12 6z m240 0 c3 -5 2 -12 -3 -15 -5 -3 -9 1 -9 9 0
17 3 19 12 6z m1122 -6 c0 -8 -4 -12 -9 -9 -5 3 -6 10 -3 15 9 13 12 11 12 -6z
m883 9 c0 -8 -19 -13 -24 -6 -3 5 1 9 9 9 8 0 15 -2 15 -3z m240 0 c0 -8 -19
-13 -24 -6 -3 5 1 9 9 9 8 0 15 -2 15 -3z m1044 -2 c3 -5 -1 -9 -9 -9 -8 0
-12 4 -9 9 3 4 7 8 9 8 2 0 6 -4 9 -8z m240 0 c3 -5 -1 -9 -9 -9 -8 0 -12 4
-9 9 3 4 7 8 9 8 2 0 6 -4 9 -8z m240 0 c3 -5 -1 -9 -9 -9 -8 0 -12 4 -9 9 3
4 7 8 9 8 2 0 6 -4 9 -8z m240 0 c3 -5 -1 -9 -9 -9 -8 0 -12 4 -9 9 3 4 7 8 9
8 2 0 6 -4 9 -8z m240 0 c3 -5 -1 -9 -9 -9 -8 0 -12 4 -9 9 3 4 7 8 9 8 2 0 6
-4 9 -8z m240 0 c3 -5 -1 -9 -9 -9 -8 0 -12 4 -9 9 3 4 7 8 9 8 2 0 6 -4 9 -8z
m-2007 -77 c0 -8 -4 -12 -9 -9 -5 3 -6 10 -3 15 9 13 12 11 12 -6z m2398 6 c3
-5 2 -12 -3 -15 -5 -3 -9 1 -9 9 0 17 3 19 12 6z m480 0 c3 -5 2 -12 -3 -15
-5 -3 -9 1 -9 9 0 17 3 19 12 6z m-7265 -7 c0 -8 -19 -13 -24 -6 -3 5 1 9 9 9
8 0 15 -2 15 -3z m154 -2 c3 -5 -1 -9 -9 -9 -8 0 -12 4 -9 9 3 4 7 8 9 8 2 0
6 -4 9 -8z m1036 2 c0 -8 -19 -13 -24 -6 -3 5 1 9 9 9 8 0 15 -2 15 -3z m410
0 c0 -8 -19 -13 -24 -6 -3 5 1 9 9 9 8 0 15 -2 15 -3z m550 0 c0 -8 -19 -13
-24 -6 -3 5 1 9 9 9 8 0 15 -2 15 -3z m244 -2 c3 -5 -1 -9 -9 -9 -8 0 -12 4
-9 9 3 4 7 8 9 8 2 0 6 -4 9 -8z m800 0 c3 -5 -1 -9 -9 -9 -8 0 -12 4 -9 9 3
4 7 8 9 8 2 0 6 -4 9 -8z m230 0 c3 -5 -1 -9 -9 -9 -8 0 -12 4 -9 9 3 4 7 8 9
8 2 0 6 -4 9 -8z m256 2 c0 -8 -19 -13 -24 -6 -3 5 1 9 9 9 8 0 15 -2 15 -3z
m625 -3 c3 -5 2 -12 -3 -15 -5 -3 -9 1 -9 9 0 17 3 19 12 6z m319 1 c3 -5 -1
-9 -9 -9 -8 0 -12 4 -9 9 3 4 7 8 9 8 2 0 6 -4 9 -8z m161 -1 c3 -5 2 -12 -3
-15 -5 -3 -9 1 -9 9 0 17 3 19 12 6z m325 3 c0 -8 -19 -13 -24 -6 -3 5 1 9 9
9 8 0 15 -2 15 -3z m1595 -3 c3 -5 2 -12 -3 -15 -5 -3 -9 1 -9 9 0 17 3 19 12
6z m325 3 c0 -8 -19 -13 -24 -6 -3 5 1 9 9 9 8 0 15 -2 15 -3z m157 -9 c0 -8
-4 -12 -9 -9 -5 3 -6 10 -3 15 9 13 12 11 12 -6z m-6042 -34 c3 -5 2 -12 -3
-15 -5 -3 -9 1 -9 9 0 17 3 19 12 6z m960 0 c3 -5 2 -12 -3 -15 -5 -3 -9 1 -9
9 0 17 3 19 12 6z m1602 -6 c0 -8 -4 -12 -9 -9 -5 3 -6 10 -3 15 9 13 12 11
12 -6z m647 7 c3 -5 -1 -9 -9 -9 -8 0 -12 4 -9 9 3 4 7 8 9 8 2 0 6 -4 9 -8z
m1481 -2 c3 -6 -1 -7 -9 -4 -18 7 -21 14 -7 14 6 0 13 -4 16 -10z m-6170 -29
c3 -5 2 -12 -3 -15 -5 -3 -9 1 -9 9 0 17 3 19 12 6z m640 0 c3 -5 2 -12 -3
-15 -5 -3 -9 1 -9 9 0 17 3 19 12 6z m720 0 c3 -5 2 -12 -3 -15 -5 -3 -9 1 -9
9 0 17 3 19 12 6z m960 0 c3 -5 2 -12 -3 -15 -5 -3 -9 1 -9 9 0 17 3 19 12 6z
m1282 -6 c0 -8 -4 -12 -9 -9 -5 3 -6 10 -3 15 9 13 12 11 12 -6z m560 0 c0 -8
-4 -12 -9 -9 -5 3 -6 10 -3 15 9 13 12 11 12 -6z m-3677 -1 c0 -8 -19 -13 -24
-6 -3 5 1 9 9 9 8 0 15 -2 15 -3z m1044 -2 c3 -5 -1 -9 -9 -9 -8 0 -12 4 -9 9
3 4 7 8 9 8 2 0 6 -4 9 -8z m587 -15 c-10 -9 -11 -8 -5 6 3 10 9 15 12 12 3
-3 0 -11 -7 -18z m373 15 c3 -5 -1 -9 -9 -9 -8 0 -12 4 -9 9 3 4 7 8 9 8 2 0
6 -4 9 -8z m236 2 c0 -8 -19 -13 -24 -6 -3 5 1 9 9 9 8 0 15 -2 15 -3z m1050
0 c0 -8 -19 -13 -24 -6 -3 5 1 9 9 9 8 0 15 -2 15 -3z m224 -2 c3 -5 -1 -9 -9
-9 -8 0 -12 4 -9 9 3 4 7 8 9 8 2 0 6 -4 9 -8z m976 2 c0 -8 -19 -13 -24 -6
-3 5 1 9 9 9 8 0 15 -2 15 -3z m870 0 c0 -8 -19 -13 -24 -6 -3 5 1 9 9 9 8 0
15 -2 15 -3z m1050 0 c0 -8 -19 -13 -24 -6 -3 5 1 9 9 9 8 0 15 -2 15 -3z
m-50 -38 c0 -2 -7 -7 -16 -10 -8 -3 -12 -2 -9 4 6 10 25 14 25 6z m-845 -35
c3 -5 2 -12 -3 -15 -5 -3 -9 1 -9 9 0 17 3 19 12 6z m-5195 -7 c0 -8 -19 -13
-24 -6 -3 5 1 9 9 9 8 0 15 -2 15 -3z m404 -2 c3 -5 -1 -9 -9 -9 -8 0 -12 4
-9 9 3 4 7 8 9 8 2 0 6 -4 9 -8z m791 -1 c3 -5 2 -12 -3 -15 -5 -3 -9 1 -9 9
0 17 3 19 12 6z m240 0 c3 -5 2 -12 -3 -15 -5 -3 -9 1 -9 9 0 17 3 19 12 6z
m799 1 c3 -5 -1 -9 -9 -9 -8 0 -12 4 -9 9 3 4 7 8 9 8 2 0 6 -4 9 -8z m1206 2
c0 -8 -19 -13 -24 -6 -3 5 1 9 9 9 8 0 15 -2 15 -3z m240 0 c0 -8 -19 -13 -24
-6 -3 5 1 9 9 9 8 0 15 -2 15 -3z m234 -2 c3 -5 -1 -9 -9 -9 -8 0 -12 4 -9 9
3 4 7 8 9 8 2 0 6 -4 9 -8z m643 -7 c0 -8 -4 -12 -9 -9 -5 3 -6 10 -3 15 9 13
12 11 12 -6z m413 9 c0 -8 -19 -13 -24 -6 -3 5 1 9 9 9 8 0 15 -2 15 -3z m474
-2 c3 -5 -1 -9 -9 -9 -8 0 -12 4 -9 9 3 4 7 8 9 8 2 0 6 -4 9 -8z m1033 -7 c0
-8 -4 -12 -9 -9 -5 3 -6 10 -3 15 9 13 12 11 12 -6z m323 9 c0 -8 -19 -13 -24
-6 -3 5 1 9 9 9 8 0 15 -2 15 -3z m-5523 -79 c0 -8 -4 -12 -9 -9 -5 3 -6 10
-3 15 9 13 12 11 12 -6z m3520 0 c0 -8 -4 -12 -9 -9 -5 3 -6 10 -3 15 9 13 12
11 12 -6z m-5597 -1 c0 -8 -19 -13 -24 -6 -3 5 1 9 9 9 8 0 15 -2 15 -3z m90
0 c0 -8 -19 -13 -24 -6 -3 5 1 9 9 9 8 0 15 -2 15 -3z m240 0 c0 -8 -19 -13
-24 -6 -3 5 1 9 9 9 8 0 15 -2 15 -3z m400 0 c0 -8 -19 -13 -24 -6 -3 5 1 9 9
9 8 0 15 -2 15 -3z m240 0 c0 -8 -19 -13 -24 -6 -3 5 1 9 9 9 8 0 15 -2 15 -3z
m794 -2 c3 -5 -1 -9 -9 -9 -8 0 -12 4 -9 9 3 4 7 8 9 8 2 0 6 -4 9 -8z m1286
2 c0 -8 -19 -13 -24 -6 -3 5 1 9 9 9 8 0 15 -2 15 -3z m234 -2 c3 -5 -1 -9 -9
-9 -8 0 -12 4 -9 9 3 4 7 8 9 8 2 0 6 -4 9 -8z m240 0 c3 -5 -1 -9 -9 -9 -8 0
-12 4 -9 9 3 4 7 8 9 8 2 0 6 -4 9 -8z m1206 2 c0 -8 -19 -13 -24 -6 -3 5 1 9
9 9 8 0 15 -2 15 -3z m470 0 c0 -8 -19 -13 -24 -6 -3 5 1 9 9 9 8 0 15 -2 15
-3z m240 0 c0 -8 -19 -13 -24 -6 -3 5 1 9 9 9 8 0 15 -2 15 -3z m800 0 c0 -8
-19 -13 -24 -6 -3 5 1 9 9 9 8 0 15 -2 15 -3z m880 0 c0 -8 -19 -13 -24 -6 -3
5 1 9 9 9 8 0 15 -2 15 -3z m240 0 c0 -8 -19 -13 -24 -6 -3 5 1 9 9 9 8 0 15
-2 15 -3z m84 -2 c3 -5 -1 -9 -9 -9 -8 0 -12 4 -9 9 3 4 7 8 9 8 2 0 6 -4 9
-8z m-6969 -71 c3 -5 2 -12 -3 -15 -5 -3 -9 1 -9 9 0 17 3 19 12 6z m562 -6
c0 -8 -4 -12 -9 -9 -5 3 -6 10 -3 15 9 13 12 11 12 -6z m478 6 c3 -5 2 -12 -3
-15 -5 -3 -9 1 -9 9 0 17 3 19 12 6z m800 0 c3 -5 2 -12 -3 -15 -5 -3 -9 1 -9
9 0 17 3 19 12 6z m562 -6 c0 -8 -4 -12 -9 -9 -5 3 -6 10 -3 15 9 13 12 11 12
-6z m720 0 c0 -8 -4 -12 -9 -9 -5 3 -6 10 -3 15 9 13 12 11 12 -6z m-3040 -10
c0 -8 -4 -12 -9 -9 -5 3 -6 10 -3 15 9 13 12 11 12 -6z m717 7 c3 -5 -1 -9 -9
-9 -8 0 -12 4 -9 9 3 4 7 8 9 8 2 0 6 -4 9 -8z m163 -7 c0 -8 -4 -12 -9 -9 -5
3 -6 10 -3 15 9 13 12 11 12 -6z m1123 9 c0 -8 -19 -13 -24 -6 -3 5 1 9 9 9 8
0 15 -2 15 -3z m90 0 c0 -8 -19 -13 -24 -6 -3 5 1 9 9 9 8 0 15 -2 15 -3z
m2474 -2 c3 -5 -1 -9 -9 -9 -8 0 -12 4 -9 9 3 4 7 8 9 8 2 0 6 -4 9 -8z m870
0 c3 -5 -1 -9 -9 -9 -8 0 -12 4 -9 9 3 4 7 8 9 8 2 0 6 -4 9 -8z m-5480 -40
c3 -5 -1 -9 -9 -9 -8 0 -12 4 -9 9 3 4 7 8 9 8 2 0 6 -4 9 -8z m2566 2 c0 -8
-19 -13 -24 -6 -3 5 1 9 9 9 8 0 15 -2 15 -3z m-1245 -33 c3 -5 2 -12 -3 -15
-5 -3 -9 1 -9 9 0 17 3 19 12 6z m1282 -6 c0 -8 -4 -12 -9 -9 -5 3 -6 10 -3
15 9 13 12 11 12 -6z m2720 0 c0 -8 -4 -12 -9 -9 -5 3 -6 10 -3 15 9 13 12 11
12 -6z m-4080 -10 c0 -8 -4 -12 -9 -9 -5 3 -6 10 -3 15 9 13 12 11 12 -6z
m253 9 c0 -8 -19 -13 -24 -6 -3 5 1 9 9 9 8 0 15 -2 15 -3z m584 -10 c3 -8 2
-12 -4 -9 -6 3 -10 10 -10 16 0 14 7 11 14 -7z m441 7 c3 -5 2 -12 -3 -15 -5
-3 -9 1 -9 9 0 17 3 19 12 6z m836 -14 c-10 -9 -11 -8 -5 6 3 10 9 15 12 12 3
-3 0 -11 -7 -18z m369 17 c0 -8 -19 -13 -24 -6 -3 5 1 9 9 9 8 0 15 -2 15 -3z
m1290 0 c0 -8 -19 -13 -24 -6 -3 5 1 9 9 9 8 0 15 -2 15 -3z m225 -3 c3 -5 2
-12 -3 -15 -5 -3 -9 1 -9 9 0 17 3 19 12 6z m255 3 c0 -8 -19 -13 -24 -6 -3 5
1 9 9 9 8 0 15 -2 15 -3z m394 -2 c3 -5 -1 -9 -9 -9 -8 0 -12 4 -9 9 3 4 7 8
9 8 2 0 6 -4 9 -8z m76 2 c0 -8 -19 -13 -24 -6 -3 5 1 9 9 9 8 0 15 -2 15 -3z
m717 -9 c0 -8 -4 -12 -9 -9 -5 3 -6 10 -3 15 9 13 12 11 12 -6z m400 0 c0 -8
-4 -12 -9 -9 -5 3 -6 10 -3 15 9 13 12 11 12 -6z m-317 -29 c0 -2 -7 -7 -16
-10 -8 -3 -12 -2 -9 4 6 10 25 14 25 6z m-2885 -35 c3 -5 2 -12 -3 -15 -5 -3
-9 1 -9 9 0 17 3 19 12 6z m1840 0 c3 -5 2 -12 -3 -15 -5 -3 -9 1 -9 9 0 17 3
19 12 6z m400 0 c3 -5 2 -12 -3 -15 -5 -3 -9 1 -9 9 0 17 3 19 12 6z m-6635
-7 c0 -8 -19 -13 -24 -6 -3 5 1 9 9 9 8 0 15 -2 15 -3z m90 0 c0 -8 -19 -13
-24 -6 -3 5 1 9 9 9 8 0 15 -2 15 -3z m240 0 c0 -8 -19 -13 -24 -6 -3 5 1 9 9
9 8 0 15 -2 15 -3z m400 0 c0 -8 -19 -13 -24 -6 -3 5 1 9 9 9 8 0 15 -2 15 -3z
m240 0 c0 -8 -19 -13 -24 -6 -3 5 1 9 9 9 8 0 15 -2 15 -3z m225 -3 c3 -5 2
-12 -3 -15 -5 -3 -9 1 -9 9 0 17 3 19 12 6z m325 3 c0 -8 -19 -13 -24 -6 -3 5
1 9 9 9 8 0 15 -2 15 -3z m1195 -3 c3 -5 2 -12 -3 -15 -5 -3 -9 1 -9 9 0 17 3
19 12 6z m569 1 c3 -5 -1 -9 -9 -9 -8 0 -12 4 -9 9 3 4 7 8 9 8 2 0 6 -4 9 -8z
m240 0 c3 -5 -1 -9 -9 -9 -8 0 -12 4 -9 9 3 4 7 8 9 8 2 0 6 -4 9 -8z m233 -7
c0 -8 -4 -12 -9 -9 -5 3 -6 10 -3 15 9 13 12 11 12 -6z m1443 9 c0 -8 -19 -13
-24 -6 -3 5 1 9 9 9 8 0 15 -2 15 -3z m240 0 c0 -8 -19 -13 -24 -6 -3 5 1 9 9
9 8 0 15 -2 15 -3z m1920 0 c0 -8 -19 -13 -24 -6 -3 5 1 9 9 9 8 0 15 -2 15
-3z m84 -2 c3 -5 -1 -9 -9 -9 -8 0 -12 4 -9 9 3 4 7 8 9 8 2 0 6 -4 9 -8z
m-759 -41 c-9 -8 -36 -10 -30 -2 2 4 11 8 20 8 8 0 13 -3 10 -6z m-3808 -36
c0 -8 -4 -12 -9 -9 -5 3 -6 10 -3 15 9 13 12 11 12 -6z m320 0 c0 -8 -4 -12
-9 -9 -5 3 -6 10 -3 15 9 13 12 11 12 -6z m240 0 c0 -8 -4 -12 -9 -9 -5 3 -6
10 -3 15 9 13 12 11 12 -6z m-3523 -3 c3 -5 -1 -9 -9 -9 -8 0 -12 4 -9 9 3 4
7 8 9 8 2 0 6 -4 9 -8z m1136 2 c0 -8 -19 -13 -24 -6 -3 5 1 9 9 9 8 0 15 -2
15 -3z m240 0 c0 -8 -19 -13 -24 -6 -3 5 1 9 9 9 8 0 15 -2 15 -3z m234 -2 c3
-5 -1 -9 -9 -9 -8 0 -12 4 -9 9 3 4 7 8 9 8 2 0 6 -4 9 -8z m470 0 c3 -5 -1
-9 -9 -9 -8 0 -12 4 -9 9 3 4 7 8 9 8 2 0 6 -4 9 -8z m240 0 c3 -5 -1 -9 -9
-9 -8 0 -12 4 -9 9 3 4 7 8 9 8 2 0 6 -4 9 -8z m246 2 c0 -8 -19 -13 -24 -6
-3 5 1 9 9 9 8 0 15 -2 15 -3z m1124 -2 c3 -5 -1 -9 -9 -9 -8 0 -12 4 -9 9 3
4 7 8 9 8 2 0 6 -4 9 -8z m240 0 c3 -5 -1 -9 -9 -9 -8 0 -12 4 -9 9 3 4 7 8 9
8 2 0 6 -4 9 -8z m240 0 c3 -5 -1 -9 -9 -9 -8 0 -12 4 -9 9 3 4 7 8 9 8 2 0 6
-4 9 -8z m231 -1 c3 -5 2 -12 -3 -15 -5 -3 -9 1 -9 9 0 17 3 19 12 6z m735 3
c0 -8 -19 -13 -24 -6 -3 5 1 9 9 9 8 0 15 -2 15 -3z m240 0 c0 -8 -19 -13 -24
-6 -3 5 1 9 9 9 8 0 15 -2 15 -3z m947 -9 c0 -8 -4 -12 -9 -9 -5 3 -6 10 -3
15 9 13 12 11 12 -6z m240 0 c0 -8 -4 -12 -9 -9 -5 3 -6 10 -3 15 9 13 12 11
12 -6z m240 0 c0 -8 -4 -12 -9 -9 -5 3 -6 10 -3 15 9 13 12 11 12 -6z m83 9
c0 -8 -19 -13 -24 -6 -3 5 1 9 9 9 8 0 15 -2 15 -3z m-6085 -73 c3 -5 2 -12
-3 -15 -5 -3 -9 1 -9 9 0 17 3 19 12 6z m5042 -6 c0 -8 -4 -12 -9 -9 -5 3 -6
10 -3 15 9 13 12 11 12 -6z m-5120 -10 c0 -8 -4 -12 -9 -9 -5 3 -6 10 -3 15 9
13 12 11 12 -6z m1123 9 c0 -8 -19 -13 -24 -6 -3 5 1 9 9 9 8 0 15 -2 15 -3z
m1274 -2 c3 -5 -1 -9 -9 -9 -8 0 -12 4 -9 9 3 4 7 8 9 8 2 0 6 -4 9 -8z m1456
2 c0 -8 -19 -13 -24 -6 -3 5 1 9 9 9 8 0 15 -2 15 -3z m1040 0 c0 -8 -19 -13
-24 -6 -3 5 1 9 9 9 8 0 15 -2 15 -3z m305 -3 c3 -5 2 -12 -3 -15 -5 -3 -9 1
-9 9 0 17 3 19 12 6z m569 1 c3 -5 -1 -9 -9 -9 -8 0 -12 4 -9 9 3 4 7 8 9 8 2
0 6 -4 9 -8z m-449 -31 c3 -5 2 -12 -3 -15 -5 -3 -9 1 -9 9 0 17 3 19 12 6z
m-4750 -11 c-3 -5 -12 -10 -18 -10 -7 0 -6 4 3 10 19 12 23 12 15 0z m1245 4
c0 -8 -19 -13 -24 -6 -3 5 1 9 9 9 8 0 15 -2 15 -3z m2870 0 c0 -8 -19 -13
-24 -6 -3 5 1 9 9 9 8 0 15 -2 15 -3z m-2925 -33 c3 -5 2 -12 -3 -15 -5 -3 -9
1 -9 9 0 17 3 19 12 6z m2962 -6 c0 -8 -4 -12 -9 -9 -5 3 -6 10 -3 15 9 13 12
11 12 -6z m1598 6 c3 -5 2 -12 -3 -15 -5 -3 -9 1 -9 9 0 17 3 19 12 6z m-5601
-9 c3 -5 -1 -9 -9 -9 -8 0 -12 4 -9 9 3 4 7 8 9 8 2 0 6 -4 9 -8z m410 0 c3
-5 -1 -9 -9 -9 -8 0 -12 4 -9 9 3 4 7 8 9 8 2 0 6 -4 9 -8z m166 2 c0 -8 -19
-13 -24 -6 -3 5 1 9 9 9 8 0 15 -2 15 -3z m547 -9 c0 -8 -4 -12 -9 -9 -5 3 -6
10 -3 15 9 13 12 11 12 -6z m643 9 c0 -8 -19 -13 -24 -6 -3 5 1 9 9 9 8 0 15
-2 15 -3z m155 -3 c3 -5 2 -12 -3 -15 -5 -3 -9 1 -9 9 0 17 3 19 12 6z m239 1
c3 -5 -1 -9 -9 -9 -8 0 -12 4 -9 9 3 4 7 8 9 8 2 0 6 -4 9 -8z m406 2 c0 -8
-19 -13 -24 -6 -3 5 1 9 9 9 8 0 15 -2 15 -3z m954 -2 c3 -5 -1 -9 -9 -9 -8 0
-12 4 -9 9 3 4 7 8 9 8 2 0 6 -4 9 -8z m401 -1 c3 -5 2 -12 -3 -15 -5 -3 -9 1
-9 9 0 17 3 19 12 6z m1602 -6 c0 -8 -4 -12 -9 -9 -5 3 -6 10 -3 15 9 13 12
11 12 -6z m-2802 -64 c3 -5 2 -12 -3 -15 -5 -3 -9 1 -9 9 0 17 3 19 12 6z
m962 -6 c0 -8 -4 -12 -9 -9 -5 3 -6 10 -3 15 9 13 12 11 12 -6z m-3987 -1 c0
-8 -19 -13 -24 -6 -3 5 1 9 9 9 8 0 15 -2 15 -3z m240 0 c0 -8 -19 -13 -24 -6
-3 5 1 9 9 9 8 0 15 -2 15 -3z m944 -2 c3 -5 -1 -9 -9 -9 -8 0 -12 4 -9 9 3 4
7 8 9 8 2 0 6 -4 9 -8z m1370 0 c3 -5 -1 -9 -9 -9 -8 0 -12 4 -9 9 3 4 7 8 9
8 2 0 6 -4 9 -8z m240 0 c3 -5 -1 -9 -9 -9 -8 0 -12 4 -9 9 3 4 7 8 9 8 2 0 6
-4 9 -8z m470 0 c3 -5 -1 -9 -9 -9 -8 0 -12 4 -9 9 3 4 7 8 9 8 2 0 6 -4 9 -8z
m241 -1 c3 -5 2 -12 -3 -15 -5 -3 -9 1 -9 9 0 17 3 19 12 6z m1040 0 c3 -5 2
-12 -3 -15 -5 -3 -9 1 -9 9 0 17 3 19 12 6z m645 3 c0 -8 -19 -13 -24 -6 -3 5
1 9 9 9 8 0 15 -2 15 -3z m237 -9 c0 -8 -4 -12 -9 -9 -5 3 -6 10 -3 15 9 13
12 11 12 -6z m240 0 c0 -8 -4 -12 -9 -9 -5 3 -6 10 -3 15 9 13 12 11 12 -6z
m407 7 c3 -5 -1 -9 -9 -9 -8 0 -12 4 -9 9 3 4 7 8 9 8 2 0 6 -4 9 -8z m-2164
-36 c0 -2 -7 -7 -16 -10 -8 -3 -12 -2 -9 4 6 10 25 14 25 6z m-4006 -44 c3 -5
-1 -9 -9 -9 -8 0 -12 4 -9 9 3 4 7 8 9 8 2 0 6 -4 9 -8z m3376 2 c0 -8 -19
-13 -24 -6 -3 5 1 9 9 9 8 0 15 -2 15 -3z m234 -2 c3 -5 -1 -9 -9 -9 -8 0 -12
4 -9 9 3 4 7 8 9 8 2 0 6 -4 9 -8z m473 -7 c0 -8 -4 -12 -9 -9 -5 3 -6 10 -3
15 9 13 12 11 12 -6z m733 9 c0 -8 -19 -13 -24 -6 -3 5 1 9 9 9 8 0 15 -2 15
-3z m-3295 -73 c3 -5 2 -12 -3 -15 -5 -3 -9 1 -9 9 0 17 3 19 12 6z m2802 -6
c0 -8 -4 -12 -9 -9 -5 3 -6 10 -3 15 9 13 12 11 12 -6z m-1763 -3 c3 -5 -1 -9
-9 -9 -8 0 -12 4 -9 9 3 4 7 8 9 8 2 0 6 -4 9 -8z m1366 2 c0 -8 -19 -13 -24
-6 -3 5 1 9 9 9 8 0 15 -2 15 -3z m2000 0 c0 -8 -19 -13 -24 -6 -3 5 1 9 9 9
8 0 15 -2 15 -3z m37 -39 c0 -8 -4 -12 -9 -9 -5 3 -6 10 -3 15 9 13 12 11 12
-6z m-2520 -40 c0 -8 -4 -12 -9 -9 -5 3 -6 10 -3 15 9 13 12 11 12 -6z m2093
-1 c0 -8 -19 -13 -24 -6 -3 5 1 9 9 9 8 0 15 -2 15 -3z m394 -2 c3 -5 -1 -9
-9 -9 -8 0 -12 4 -9 9 3 4 7 8 9 8 2 0 6 -4 9 -8z m-2320 -80 c3 -5 -1 -9 -9
-9 -8 0 -12 4 -9 9 3 4 7 8 9 8 2 0 6 -4 9 -8z m240 0 c3 -5 -1 -9 -9 -9 -8 0
-12 4 -9 9 3 4 7 8 9 8 2 0 6 -4 9 -8z m240 0 c3 -5 -1 -9 -9 -9 -8 0 -12 4
-9 9 3 4 7 8 9 8 2 0 6 -4 9 -8z m240 0 c3 -5 -1 -9 -9 -9 -8 0 -12 4 -9 9 3
4 7 8 9 8 2 0 6 -4 9 -8z m553 -7 c0 -8 -4 -12 -9 -9 -5 3 -6 10 -3 15 9 13
12 11 12 -6z m56 -30 c-3 -9 -8 -14 -10 -11 -3 3 -2 9 2 15 9 16 15 13 8 -4z
m907 1 c0 -2 -7 -7 -16 -10 -8 -3 -12 -2 -9 4 6 10 25 14 25 6z m240 0 c0 -2
-7 -7 -16 -10 -8 -3 -12 -2 -9 4 6 10 25 14 25 6z m-1843 -41 c0 -8 -4 -12 -9
-9 -5 3 -6 10 -3 15 9 13 12 11 12 -6z m240 0 c0 -8 -4 -12 -9 -9 -5 3 -6 10
-3 15 9 13 12 11 12 -6z m-793 -3 c3 -5 -1 -9 -9 -9 -8 0 -12 4 -9 9 3 4 7 8
9 8 2 0 6 -4 9 -8z m1046 2 c0 -8 -19 -13 -24 -6 -3 5 1 9 9 9 8 0 15 -2 15
-3z m1475 -44 c-3 -5 -12 -10 -18 -10 -7 0 -6 4 3 10 19 12 23 12 15 0z m-205
-36 c0 -8 -19 -13 -24 -6 -3 5 1 9 9 9 8 0 15 -2 15 -3z m154 -2 c3 -5 -1 -9
-9 -9 -8 0 -12 4 -9 9 3 4 7 8 9 8 2 0 6 -4 9 -8z m-2399 -71 c3 -5 2 -12 -3
-15 -5 -3 -9 1 -9 9 0 17 3 19 12 6z m1280 0 c3 -5 2 -12 -3 -15 -5 -3 -9 1
-9 9 0 17 3 19 12 6z m-1360 -10 c3 -5 2 -12 -3 -15 -5 -3 -9 1 -9 9 0 17 3
19 12 6z m879 1 c3 -5 -1 -9 -9 -9 -8 0 -12 4 -9 9 3 4 7 8 9 8 2 0 6 -4 9 -8z
m403 -7 c0 -8 -4 -12 -9 -9 -5 3 -6 10 -3 15 9 13 12 11 12 -6z m-720 -70 c0
-8 -4 -12 -9 -9 -5 3 -6 10 -3 15 9 13 12 11 12 -6z m240 0 c0 -8 -4 -12 -9
-9 -5 3 -6 10 -3 15 9 13 12 11 12 -6z m240 0 c0 -8 -4 -12 -9 -9 -5 3 -6 10
-3 15 9 13 12 11 12 -6z m487 -3 c3 -5 -1 -9 -9 -9 -8 0 -12 4 -9 9 3 4 7 8 9
8 2 0 6 -4 9 -8z m240 0 c3 -5 -1 -9 -9 -9 -8 0 -12 4 -9 9 3 4 7 8 9 8 2 0 6
-4 9 -8z m-1447 -77 c0 -8 -4 -12 -9 -9 -5 3 -6 10 -3 15 9 13 12 11 12 -6z
m1278 6 c3 -5 2 -12 -3 -15 -5 -3 -9 1 -9 9 0 17 3 19 12 6z m-320 -80 c3 -5
2 -12 -3 -15 -5 -3 -9 1 -9 9 0 17 3 19 12 6z m-555 -7 c0 -8 -19 -13 -24 -6
-3 5 1 9 9 9 8 0 15 -2 15 -3z m314 -2 c3 -5 -1 -9 -9 -9 -8 0 -12 4 -9 9 3 4
7 8 9 8 2 0 6 -4 9 -8z m323 -7 c0 -8 -4 -12 -9 -9 -5 3 -6 10 -3 15 9 13 12
11 12 -6z m-43 -33 c3 -5 -1 -9 -9 -9 -8 0 -12 4 -9 9 3 4 7 8 9 8 2 0 6 -4 9
-8z m-759 -31 c3 -5 2 -12 -3 -15 -5 -3 -9 1 -9 9 0 17 3 19 12 6z m1280 0 c3
-5 2 -12 -3 -15 -5 -3 -9 1 -9 9 0 17 3 19 12 6z m-311 -9 c3 -5 -1 -9 -9 -9
-8 0 -12 4 -9 9 3 4 7 8 9 8 2 0 6 -4 9 -8z m233 -7 c0 -8 -4 -12 -9 -9 -5 3
-6 10 -3 15 9 13 12 11 12 -6z m-473 -73 c3 -5 -1 -9 -9 -9 -8 0 -12 4 -9 9 3
4 7 8 9 8 2 0 6 -4 9 -8z m391 -71 c3 -5 2 -12 -3 -15 -5 -3 -9 1 -9 9 0 17 3
19 12 6z m-231 -9 c3 -5 -1 -9 -9 -9 -8 0 -12 4 -9 9 3 4 7 8 9 8 2 0 6 -4 9
-8z m316 -158 c0 -8 -19 -13 -24 -6 -3 5 1 9 9 9 8 0 15 -2 15 -3z m-716 -162
c3 -5 -1 -9 -9 -9 -8 0 -12 4 -9 9 3 4 7 8 9 8 2 0 6 -4 9 -8z m-74 -158 c0
-8 -19 -13 -24 -6 -3 5 1 9 9 9 8 0 15 -2 15 -3z m-253 -79 c0 -8 -4 -12 -9
-9 -5 3 -6 10 -3 15 9 13 12 11 12 -6z m-80 -90 c0 -8 -4 -12 -9 -9 -5 3 -6
10 -3 15 9 13 12 11 12 -6z m240 0 c0 -8 -4 -12 -9 -9 -5 3 -6 10 -3 15 9 13
12 11 12 -6z"/>
<path d="M2869 4546 c-59 -16 -99 -45 -160 -118 -120 -145 -189 -270 -189
-346 0 -48 38 -126 87 -176 102 -105 300 -199 399 -191 16 2 40 3 53 4 55 2
279 274 340 412 23 51 19 87 -19 163 -29 57 -108 147 -164 186 -89 60 -248 91
-347 66z"/>
<path d="M3863 4551 c-13 -7 -456 -672 -504 -756 -20 -33 -40 -73 -46 -90 -23
-68 10 -181 71 -238 63 -60 243 -150 347 -173 11 -2 29 -6 42 -9 111 -26 191
30 304 211 88 142 102 167 212 384 109 216 151 315 151 355 0 102 -157 237
-347 299 -53 18 -212 29 -230 17z"/>
<path d="M4714 4353 c-29 -14 -86 -102 -177 -273 -11 -19 -34 -62 -52 -95 -18
-33 -49 -91 -70 -130 -20 -38 -50 -92 -65 -120 -97 -176 -217 -414 -237 -470
-6 -16 -14 -39 -18 -50 -16 -42 -16 -104 -1 -133 31 -60 148 -143 332 -236
143 -72 162 -76 195 -39 79 89 222 294 369 528 34 55 77 123 95 150 18 28 44
70 57 95 14 25 55 96 92 158 36 62 66 117 66 122 0 4 3 10 8 12 16 7 62 124
58 147 -19 89 -142 248 -225 290 -103 53 -355 79 -427 44z"/>
<path d="M5532 3800 c-28 -17 -130 -169 -253 -375 -30 -49 -58 -98 -64 -107
-5 -9 -17 -29 -26 -45 -18 -31 -24 -43 -134 -233 -130 -224 -176 -326 -176
-385 0 -76 49 -148 131 -190 35 -18 181 -73 213 -80 12 -2 42 -9 67 -15 62
-16 190 -16 217 -2 68 37 294 427 441 762 80 182 114 285 111 340 -6 125 -151
274 -320 329 -64 21 -174 21 -207 1z"/>
</g>
</svg>
